# xmcd CD database file
#
# Track frame offsets:
#	150
#	10762
#	69407
#	88158
#	102372
#	122511
#	136056
#	156771
#	193014
#	222183
#	239950
#
# Disc length: 3622 seconds
#
# Revision: 0
# Processed by: cddbd v1.5PL3 Copyright (c) Steve Scherf et al.
# Submitted via: CDex 1.51
#
DISCID=960e240b
DTITLE=ＢＲＯＣＣＯＬＩ - 「にょにょらじ」＆「エンジェル▼LOVE」 AMオリジナルバージョン
DYEAR=2004
DGENRE=Anime
TTITLE0=「にょにょらじ」 オープニング
TTITLE1=「にょにょらじ」 ふつおた
TTITLE2=「にょにょらじ」 あかりの苺のまほう
TTITLE3=「にょにょらじ」 五・七・にょ
TTITLE4=「にょにょらじ」 何か屋のアレ
TTITLE5=「にょにょらじ」 エンディング
TTITLE6=「エンジェル▼LOVE 〜沙緒里のはないろ日記〜」 今日のスマイルポイント〜オープニング
TTITLE7=「エンジェル▼LOVE 〜沙緒里のはないろ日記〜」 真夜中の激論エンジェル
TTITLE8=「エンジェル▼LOVE 〜沙緒里のはないろ日記〜」 ちとせの1分間トーキング
TTITLE9=「エンジェル▼LOVE 〜沙緒里のはないろ日記〜」 天使のことわざ辞典
TTITLE10=「エンジェル▼LOVE 〜沙緒里のはないろ日記〜」 もっともっとぴっ単語!〜エンディング
EXTD=YEAR: 2004/03
EXTT0=
EXTT1=
EXTT2=
EXTT3=
EXTT4=
EXTT5=
EXTT6=
EXTT7=
EXTT8=
EXTT9=
EXTT10=
PLAYORDER=
